PathFileType	4	(X/Y/Z)	C:/Users/beibeiliu/ov580/test_trc/User1\sequence.14_training_dense_left.trc
DataRate	CameraRate	NumFrames	NumMarkers	Units	OrigDataRate	OrigDataStartFrame	OrigNumFrames
120	120	22	19	mm	120	101	267
Frame#	Time	ThumbCMC			ThumbMCP			ThumbIP			ThumbTip			IndexMCP			IndexPIP			IndexTip			MiddleMCP			MiddlePIP			MiddleTip			RingMCP			RingPIP			RingTip			PinkyMCP			PinkyPIP			PinkyTip			BackHand1			BackHand2			BackHand3	
		X0	Y0	Z0	X1	Y1	Z1	X2	Y2	Z2	X3	Y3	Z3	X4	Y4	Z4	X5	Y5	Z5	X6	Y6	Z6	X7	Y7	Z7	X8	Y8	Z8	X9	Y9	Z9	X10	Y10	Z10	X11	Y11	Z11	X12	Y12	Z12	X13	Y13	Z13	X14	Y14	Z14	X15	Y15	Z15	X16	Y16	Z16	X17	Y17	Z17	X18	Y18	Z18	
100	0.833333	-170.134	48.3468	25.3328	-159.632	30.4762	-10.0553	-159.593	26.5617	-36.2261	-163.18	19.7554	-61.6389	-169.692	83.7784	-52.3528	-176.508	64.2766	-76.8187	-188.858	29.3439	-69.8869	-194.545	104.556	-58.8436	-192.493	98.6192	-86.9195	-193.845	78.78	-116.402	-217.736	104.631	-48.6292	-216.21	103.958	-78.8679	-218.778	92.7607	-107.532	-245.975	91.9567	-36.5434	-244.62	91.5012	-60.3295	-243.662	86.8007	-86.6222	-221.665	96.9369	9.36496	-222.359	85.4158	44.3321	-185.98	85.7103	25.9613	
101	0.841667	-167.236	48.3709	20.2668	-164.061	30.4737	-8.49595	-163.042	27.5177	-36.9476	-164.911	20.3327	-61.5868	-168.148	82.0928	-53.2505	-174.388	62.6697	-76.6974	-190.155	27.6325	-68.6458	-192.423	102.836	-54.3162	-192.778	96.6805	-89.8397	-197.815	80.4449	-115.009	-215.17	104.861	-50.0381	-217.315	103.657	-82.9627	-218.005	92.8371	-106.449	-243.883	92.8793	-36.4925	-242.613	91.9281	-59.2334	-243.849	86.08	-88.2378	-219.04	96.9727	10.3315	-223.186	86.9992	39.6086	-183.389	87.7229	23.6001	
102	0.85	-166.193	47.3414	20.6339	-160.91	29.8726	-11.7832	-162.096	26.0395	-37.5239	-165.685	20.0027	-62.9452	-165.368	81.3946	-55.9558	-173.451	60.7367	-77.9575	-188.543	31.6547	-70.406	-192.182	104.515	-56.9668	-186.847	97.8975	-87.6306	-194.757	80.9262	-115.343	-216.485	105.082	-49.6498	-213.08	103.842	-82.0635	-217.451	93.6282	-107.049	-239.826	93.124	-35.2339	-240.447	92.0849	-62.5866	-243.087	86.2274	-88.8145	-218.981	97.2198	8.90151	-218.536	87.1272	39.727	-185.424	87.7229	23.744	
103	0.858333	-169.687	47.2746	20.5711	-162.529	29.9368	-9.4361	-159.64	24.01	-37.8634	-164.046	19.6628	-64.0447	-167.403	83.2343	-54.7223	-175.041	61.0691	-78.6999	-186.017	29.2405	-70.106	-189.751	103.842	-56.3729	-188.791	97.5951	-89.5875	-192.338	81.6816	-113.306	-211.479	105.024	-50.2997	-210.689	104.453	-80.7201	-214.462	92.681	-108.399	-238.885	95.1613	-37.5821	-238.796	93.1184	-63.3832	-238.761	87.2772	-90.7894	-217.578	96.0971	7.77503	-218.861	87.2272	39.1778	-185.458	86.2693	23.5799	
104	0.866667	-168.782	45.7544	22.9559	-162.198	30.147	-11.1701	-159.08	23.5879	-39.0536	-163.707	20.1843	-66.7482	-165.412	82.7123	-54.6233	-175.3	60.559	-79.172	-187.983	28.7985	-71.1187	-190.62	103.522	-56.3123	-187.597	98.2222	-87.8965	-192.062	78.419	-117.385	-212.319	105.975	-53.4261	-210.024	105.22	-79.1594	-211.715	93.1439	-107.647	-237.995	93.7854	-34.2954	-238.643	94.2777	-61.7301	-240.171	89.2952	-88.4814	-217.958	97.7667	8.52565	-222.029	87.4542	44.063	-182.479	82.633	25.4858	
105	0.875	-167.979	47.0089	20.6713	-161.177	27.7346	-9.14394	-160.916	26.2463	-38.3272	-162.919	18.2617	-59.7257	-161.719	80.914	-53.0117	-172.356	65.1195	-78.3375	-183.721	29.3581	-75.8608	-183.969	102.153	-55.0345	-184.616	98.4618	-85.6886	-188.456	81.0154	-115.717	-210.482	104.227	-47.3642	-207.331	104.462	-82.0555	-211.033	94.0936	-109.666	-239.587	94.8034	-36.2224	-239.653	96.2059	-61.076	-234.026	89.3841	-86.2835	-212.535	94.9316	9.75752	-217.491	86.0124	43.5426	-184.625	84.3259	22.0113	
106	0.883333	-163.377	42.325	22.3883	-157.504	23.0581	-7.20324	-157.449	22.7265	-38.1422	-162.679	18.7271	-65.0257	-160.721	79.9773	-55.7782	-168.166	63.5961	-80.7718	-182.357	33.1079	-81.4557	-184.407	102.624	-58.1822	-183.979	97.0151	-86.308	-191.266	81.0948	-117.089	-208.202	103.672	-47.989	-209.589	104.35	-79.2279	-212.247	94.8116	-105.187	-234.55	95.4844	-39.3965	-240.459	96.4232	-61.8704	-236.9	88.1573	-91.157	-214.135	94.6962	7.53362	-217.493	84.3464	43.7026	-179.443	80.6614	25.3218	
107	0.891667	-165.49	42.0917	23.2765	-156.955	26.0826	-11.0692	-156.235	22.1951	-35.8669	-158.24	16.629	-63.2139	-158.106	80.2451	-52.2395	-166.78	65.8795	-81.0312	-182.309	36.1452	-86.2927	-183.925	101.803	-58.4607	-182.646	96.1492	-89.0636	-189.962	82.3285	-114.207	-208.302	104.148	-50.4261	-209.959	106.126	-79.1045	-207.938	94.6323	-106.347	-233.879	96.0026	-38.1449	-235.774	95.2862	-60.872	-232.406	88.2768	-88.4936	-213.81	95.3832	8.19731	-216.303	84.2214	42.7146	-178.285	83.0029	24.6482	
108	0.9	-164.154	41.8608	23.4407	-158.365	26.2281	-8.93634	-153.571	20.2954	-35.7743	-156.729	13.5653	-59.113	-157.16	79.7446	-53.2327	-164.732	66.6068	-82.0413	-176.939	35.3153	-91.3327	-180.034	101.264	-58.81	-181.78	95.418	-90.832	-186.775	79.7177	-117.643	-206.738	104.865	-53.8191	-207.613	105.629	-80.0645	-207.944	93.0003	-107.427	-233.637	95.247	-39.217	-236.743	95.1963	-64.8561	-230.372	90.7031	-87.8635	-209.469	95.0659	8.03853	-213.364	86.667	40.523	-179.116	81.3035	21.9014	
109	0.908333	-163.798	42.4682	20.846	-153.808	21.9146	-7.77548	-154.718	18.7899	-34.9537	-156.333	13.255	-61.6056	-158.95	78.981	-55.3519	-162.945	68.0259	-80.5434	-175.054	41.5938	-93.1224	-180.706	99.2072	-54.6445	-180.246	95.9485	-89.6131	-188.948	82.0501	-115.2	-204.439	104.005	-51.7317	-204.754	103.275	-83.3955	-208.657	94.2281	-105.497	-234.061	96.0783	-40.0438	-232.379	94.5749	-64.3643	-233.45	90.6413	-89.7794	-210.406	93.3727	10.2059	-212.083	86.393	42.9048	-176.783	80.3875	25.3816	
110	0.916667	-161.998	38.8171	24.5958	-153.373	20.6138	-9.86972	-154.261	17.6501	-36.2969	-158.296	13.7055	-59.7229	-157.276	78.3088	-54.047	-165.29	66.2455	-83.3766	-175.363	43.2413	-95.7258	-179.238	98.4466	-58.1541	-182.054	95.4386	-89.9459	-187.466	79.6017	-120.586	-202.373	102.683	-51.1425	-203.971	103.319	-80.9693	-208.943	94.1821	-106.994	-231.008	94.7369	-38.5562	-233.807	94.4478	-62.0929	-232.573	89.5942	-86.9862	-209.954	93.3217	9.69996	-212.755	85.9348	42.5775	-174.562	79.5616	24.8895	
111	0.925	-161.997	39.7154	22.6925	-156.897	19.7867	-4.59153	-154.108	15.3941	-33.0258	-156.201	7.62801	-57.9947	-156.692	77.2485	-54.8139	-164.085	68.0135	-83.231	-178.503	40.0406	-96.5444	-177.534	98.1116	-58.9896	-182.719	94.934	-88.2682	-190.029	80.0033	-119.557	-204.813	101.764	-52.3577	-206.054	102.972	-81.6921	-209.271	92.8047	-106.896	-233.905	94.6689	-35.0427	-237.211	96.4063	-59.6006	-237.604	92.0036	-90.4975	-205.461	94.1277	4.51779	-208.95	85.6866	41.0074	-177.209	79.3915	24.272	
112	0.933333	-160.043	37.9103	23.311	-156.523	19.4632	-8.75174	-156.225	15.2752	-35.1073	-159.464	6.82751	-61.2224	-156.154	76.0016	-55.41	-162.45	62.6255	-86.0407	-180.316	34.6295	-95.5454	-182.49	98.0508	-57.1674	-179.588	93.5387	-88.3436	-188.298	79.7456	-117.126	-203.826	101.477	-54.799	-205.37	101.59	-82.4451	-208.29	91.0281	-107.512	-232.387	95.0706	-40.0133	-234.587	95.1553	-59.1821	-236.413	90.5214	-88.8466	-206.988	93.8378	7.77982	-207.277	87.2014	38.2021	-173.914	81.1744	21.286	
113	0.941667	-159.129	38.0011	19.2008	-157.809	19.3657	-7.71374	-157.705	13.9897	-37.4077	-163.827	8.77896	-64.0324	-157.107	73.4903	-55.8843	-166.677	57.6922	-86.3728	-183.051	28.8607	-89.3992	-181.929	97.5125	-63.1568	-179.564	91.7116	-89.8209	-192.427	74.4411	-121.747	-201.689	101.062	-56.2223	-203.245	99.1962	-82.9922	-210.472	89.3713	-111.522	-231.753	95.0807	-36.9645	-237.617	96.2993	-63.091	-238.845	92.0588	-90.0969	-200.971	94.4775	4.69118	-208.469	89.3177	39.6661	-172.152	78.7553	22.6341	
114	0.95	-162.297	38.327	23.1065	-158.737	20.9795	-13.0257	-160.385	17.7088	-41.0862	-169.263	12.9586	-62.4116	-155.436	72.2511	-57.0597	-166.514	53.8828	-83.9439	-185.8	29.2036	-83.1195	-175.938	93.9828	-59.9168	-181.361	87.9143	-93.9996	-186.962	74.0298	-117.081	-202.524	101.668	-56.9414	-202.901	98.5672	-81.988	-207.851	88.223	-107.938	-227.533	94.6556	-35.165	-231.399	96.1068	-60.2388	-236.307	93.4588	-86.7242	-203.525	92.9043	8.47013	-207.712	89.5366	36.6937	-173.181	80.6384	23.2368	
115	0.958333	-162.015	40.185	19.6092	-159.531	21.0429	-9.18169	-159.783	16.9636	-42.0886	-168.873	14.6505	-64.2186	-154.48	72.006	-56.6663	-166.523	52.2336	-84.2744	-182.046	26.8498	-81.3006	-177.713	96.0599	-61.5257	-181.754	88.1743	-94.4893	-186.352	72.3691	-117.045	-198.14	100.084	-52.7653	-200.621	98.0523	-87.7175	-205.39	86.3898	-109.789	-227.458	97.7713	-39.5101	-232.902	97.5053	-61.0339	-229.785	92.6749	-89.5821	-202.231	95.2299	5.46641	-203.738	89.5544	37.8765	-168.084	78.5178	20.6661	
116	0.966667	-161.447	38.0694	21.8341	-157.871	21.2188	-14.7307	-159.205	16.1243	-39.8339	-169.159	16.7901	-65.4685	-155.934	71.1948	-56.4312	-167.226	55.5083	-82.4389	-183.463	24.9133	-79.5533	-176.12	95.6843	-59.7407	-175.739	87.6373	-93.0984	-188.02	71.7127	-118.956	-198.862	100.953	-53.2737	-198.291	97.9586	-86.5182	-205.668	88.3047	-109.926	-224.178	96.6027	-40.3719	-231.01	98.4914	-60.8757	-230.564	94.9395	-88.7458	-197.097	95.791	5.82721	-205.325	91.4436	38.3138	-167.97	79.105	23.3205	
117	0.975	-159.758	36.5704	20.8435	-155.079	18.623	-15.0711	-158.058	17.1541	-39.586	-165.555	15.2572	-64.4041	-155.405	71.3018	-59.5272	-164.465	51.2478	-83.0613	-183.08	23.5309	-78.3346	-174.259	95.7103	-59.803	-177.403	89.1432	-91.1951	-186.59	73.0483	-117.382	-194.355	99.5312	-54.7875	-195.372	98.8338	-82.5739	-203.065	87.2182	-110.562	-225.606	96.7233	-37.5149	-229.074	97.2384	-62.7873	-226.296	94.3332	-90.5267	-197.501	96.0601	3.38463	-201.264	86.2483	40.3584	-170.236	80.6246	20.221	
118	0.983333	-161.022	39.4294	18.5053	-156.008	21.4104	-15.7956	-158.558	20.8187	-41.7727	-162.08	12.2905	-67.3271	-151.25	70.7499	-58.6564	-162.899	50.7323	-83.4995	-181.815	25.4961	-78.6273	-171.116	94.7363	-59.8155	-171.959	88.42	-90.5412	-183.459	71.6032	-119.216	-196.72	102.581	-57.9143	-197.298	101.101	-84.2492	-202.071	88.2578	-112.826	-224.177	97.2155	-38.4458	-227.876	99.1853	-61.3237	-223.593	94.333	-89.9083	-199.404	97.0546	6.51937	-203.224	88.4705	39.9174	-167.271	77.4094	23.1423	
119	0.991667	-160.481	40.192	17.6608	-153.813	21.1184	-15.469	-155.321	19.5093	-43.8074	-162.826	15.4528	-68.0387	-149.845	71.3136	-55.4963	-160.25	54.2637	-82.7819	-180.327	24.9278	-78.6877	-172.623	97.2748	-61.9288	-173.613	89.0307	-94.9408	-182.658	71.6159	-122.369	-194.681	103.132	-56.7209	-193.461	99.8254	-85.9096	-201.32	89.4658	-110.064	-222.379	97.8134	-40.1887	-227.213	98.6174	-63.7299	-222.011	91.734	-91.2662	-197.984	98.9991	3.13131	-203.911	90.2065	37.0709	-169.585	80.861	23.3263	
120	1	-157.744	38.8195	20.0246	-156.885	23.2944	-11.4258	-157.548	21.0909	-41.6726	-162.044	15.9361	-63.4897	-151.698	74.0083	-59.6066	-161.841	57.378	-82.4934	-177.356	27.4537	-81.4987	-173.786	97.6486	-58.7528	-173.169	89.6104	-93.4058	-182.805	74.4383	-118.511	-193.266	102.042	-52.2885	-194.405	100.927	-83.3057	-201.891	89.1598	-112.701	-220.549	97.7433	-42.6371	-223.72	97.7261	-67.0481	-223.57	95.2176	-88.3738	-199.905	97.4918	6.92818	-204.609	89.3275	37.7516	-165.432	80.3911	19.1347	
121	1.00833	-156.477	39.373	18.9524	-155.679	22.3007	-10.8152	-155.157	20.9064	-41.1186	-161.889	17.882	-69.3506	-154.285	76.3857	-58.827	-162.68	59.9	-83.1226	-180.795	27.9294	-81.5047	-173.632	98.0752	-63.6857	-171.351	91.2382	-90.4121	-183.485	77.3184	-118.74	-198.486	103.572	-54.4618	-199.263	102.338	-85.6162	-202.978	90.3255	-111.064	-224.314	98.1572	-39.2324	-227.978	99.2025	-63.8254	-226.956	94.1689	-89.3945	-198.499	97.1145	3.08394	-205.47	89.071	39.1299	-167.636	82.2216	21.9069	
